<?xml version="1.0" encoding="UTF-8" standalone="no"?>
<!-- Created with Inkscape (http://www.inkscape.org/) -->

<svg
   xmlns:dc="http://purl.org/dc/elements/1.1/"
   xmlns:cc="http://creativecommons.org/ns#"
   xmlns:rdf="http://www.w3.org/1999/02/22-rdf-syntax-ns#"
   xmlns:svg="http://www.w3.org/2000/svg"
   xmlns="http://www.w3.org/2000/svg"
   xmlns:xlink="http://www.w3.org/1999/xlink"
   xmlns:sodipodi="http://sodipodi.sourceforge.net/DTD/sodipodi-0.dtd"
   xmlns:inkscape="http://www.inkscape.org/namespaces/inkscape"
   width="16"
   height="16"
   viewBox="0 0 15.999999 15.999999"
   id="svg2"
   version="1.1"
   inkscape:version="0.92.2 (5c3e80d, 2017-08-06)"
   sodipodi:docname="debug_method_return_exception.svg"
   inkscape:export-filename="C:\Userdata\Development\sysbox-oxygen\git\org.eclipse.ease.core\plugins\org.eclipse.ease.ui\icons\eobj16\debug_method_return_exception.png"
   inkscape:export-xdpi="96"
   inkscape:export-ydpi="96">
  <sodipodi:namedview
     inkscape:snap-grids="true"
     inkscape:snap-bbox="true"
     id="base"
     pagecolor="#ffffff"
     bordercolor="#666666"
     borderopacity="1.0"
     inkscape:pageopacity="0.0"
     inkscape:pageshadow="2"
     inkscape:zoom="8.609375"
     inkscape:cx="-22.1173"
     inkscape:cy="8.1517943"
     inkscape:document-units="px"
     inkscape:current-layer="layer1"
     showgrid="true"
     showguides="false"
     inkscape:window-width="1920"
     inkscape:window-height="1137"
     inkscape:window-x="-8"
     inkscape:window-y="-8"
     inkscape:window-maximized="1"
     units="px">
    <inkscape:grid
       type="xygrid"
       id="grid4148" />
  </sodipodi:namedview>
  <defs
     id="defs4">
    <linearGradient
       id="linearGradient4844-4">
      <stop
         style="stop-color:#c51325;stop-opacity:1"
         offset="0"
         id="stop4846-8" />
      <stop
         style="stop-color:#ca5d49;stop-opacity:1"
         offset="1"
         id="stop4848-8" />
    </linearGradient>
    <linearGradient
       inkscape:collect="always"
       xlink:href="#linearGradient4844-4"
       id="linearGradient853"
       x1="3.0007069"
       y1="1044.5236"
       x2="10.000707"
       y2="1044.5236"
       gradientUnits="userSpaceOnUse" />
  </defs>
  <metadata
     id="metadata7">
    <rdf:RDF>
      <cc:Work
         rdf:about="">
        <dc:format>image/svg+xml</dc:format>
        <dc:type
           rdf:resource="http://purl.org/dc/dcmitype/StillImage" />
        <dc:title></dc:title>
      </cc:Work>
    </rdf:RDF>
  </metadata>
  <g
     inkscape:groupmode="layer"
     id="layer2"
     inkscape:label="Ebene 2"
     transform="translate(0,-1036.3622)"
     style="display:none">
    <rect
       style="fill:#3fff00;fill-opacity:1;fill-rule:evenodd;stroke:#000000;stroke-width:0.89384377px;stroke-linecap:butt;stroke-linejoin:miter;stroke-opacity:1"
       id="rect4146"
       width="31.068888"
       height="31.24704"
       x="0.47503051"
       y="1020.6794" />
  </g>
  <g
     inkscape:label="Ebene 1"
     inkscape:groupmode="layer"
     id="layer1"
     transform="translate(0,-1036)">
    <path
       sodipodi:nodetypes="ccccccc"
       inkscape:connector-curvature="0"
       id="path3413"
       d="m 11.000707,1046.0236 c 0,0 -5,0 -5,0 0,0 0,-3 0,-3 0,0 5,0 5,0 0,0 0,-3 0,-3 0,0 5,4.5 5,4.5 0,0 -5,4.5 -5,4.5"
       style="fill:#fefefe;stroke-width:0.5" />
    <path
       sodipodi:nodetypes="cccccccccccc"
       inkscape:connector-curvature="0"
       id="path3411"
       d="m 3.000707,1040.0236 c 0,0 7,0 7,0 0,0 0,3 0,3 0,0 -2,0 -2,0 0,0 0,-1 0,-1 0,0 -3,0 -3,0 0,0 0,5 0,5 0,0 3,0 3,0 0,0 0,-1 0,-1 0,0 2,0 2,0 0,0 0,3 0,3 0,0 -7,0 -7,0"
       style="fill:url(#linearGradient853);stroke-width:0.5;fill-opacity:1.0" />
    <path
       sodipodi:nodetypes="cccccccc"
       inkscape:connector-curvature="0"
       id="path3409"
       d="m 12.000707,1047.5236 c 0,0 0,-2.5 0,-2.5 0,0 -5,0 -5,0 0,0 0,-1 0,-1 0,0 5,0 5,0 0,0 0,-2 0,-2 0,0 3,2.5 3,2.5 0,0 -3,2.5 -3,2.5"
       style="fill:#000000;stroke-width:0.5" />
  </g>
</svg>
