<?xml version="1.0" encoding="UTF-8" standalone="no"?>
<!-- Created with Inkscape (http://www.inkscape.org/) -->

<svg
   xmlns:dc="http://purl.org/dc/elements/1.1/"
   xmlns:cc="http://creativecommons.org/ns#"
   xmlns:rdf="http://www.w3.org/1999/02/22-rdf-syntax-ns#"
   xmlns:svg="http://www.w3.org/2000/svg"
   xmlns="http://www.w3.org/2000/svg"
   xmlns:xlink="http://www.w3.org/1999/xlink"
   xmlns:sodipodi="http://sodipodi.sourceforge.net/DTD/sodipodi-0.dtd"
   xmlns:inkscape="http://www.inkscape.org/namespaces/inkscape"
   width="16"
   height="16"
   id="svg2"
   version="1.1"
   inkscape:version="0.92.2 (5c3e80d, 2017-08-06)"
   sodipodi:docname="local_object.svg"
   inkscape:export-filename="C:\Userdata\Development\sysbox-oxygen\git\org.eclipse.ease.core\developers\EASE UI Design\org.eclipse.ease\svg\eobj16\java_object.png"
   inkscape:export-xdpi="96"
   inkscape:export-ydpi="96">
  <defs
     id="defs4">
    <linearGradient
       inkscape:collect="always"
       id="linearGradient3781">
      <stop
         style="stop-color:#6e6f75;stop-opacity:1"
         offset="0"
         id="stop3783" />
      <stop
         style="stop-color:#8f8f93;stop-opacity:1"
         offset="1"
         id="stop3785" />
    </linearGradient>
    <linearGradient
       id="linearGradient3773">
      <stop
         id="stop3775"
         offset="0"
         style="stop-color:#9a9a9e;stop-opacity:1" />
      <stop
         style="stop-color:#8f8f93;stop-opacity:1"
         offset="0.5"
         id="stop3777" />
      <stop
         id="stop3779"
         offset="1"
         style="stop-color:#cfcfcf;stop-opacity:1" />
    </linearGradient>
    <linearGradient
       y2="462.11539"
       x2="388.63736"
       y1="478.18777"
       x1="388.63736"
       gradientUnits="userSpaceOnUse"
       id="linearGradient3929-5"
       xlink:href="#linearGradient10798-1-9-3-7-6-8-9-0-9-1"
       inkscape:collect="always" />
    <linearGradient
       id="linearGradient10798-1-9-3-7-6-8-9-0-9-1">
      <stop
         style="stop-color:#7564b1;stop-opacity:1"
         offset="0"
         id="stop10800-5-2-1-8-20-6-4-9-8-2" />
      <stop
         id="stop10806-6-8-5-3-9-24-8-4-3-2"
         offset="0.5"
         style="stop-color:#5d4aa1;stop-opacity:1" />
      <stop
         style="stop-color:#9283c3;stop-opacity:1"
         offset="1"
         id="stop10802-1-5-3-0-4-8-4-2-9-2" />
    </linearGradient>
    <linearGradient
       y2="462.11539"
       x2="388.63736"
       y1="475.14825"
       x1="388.63736"
       gradientUnits="userSpaceOnUse"
       id="linearGradient7188"
       xlink:href="#linearGradient3773"
       inkscape:collect="always"
       gradientTransform="matrix(0.55482947,0,0,0.55482947,-207.34319,784.57048)" />
    <linearGradient
       inkscape:collect="always"
       xlink:href="#linearGradient3781"
       id="linearGradient3787"
       x1="383.80801"
       y1="475.26016"
       x2="383.80801"
       y2="461.87262"
       gradientUnits="userSpaceOnUse"
       gradientTransform="matrix(0.55482947,0,0,0.55482947,-207.34319,784.57048)" />
  </defs>
  <sodipodi:namedview
     id="base"
     pagecolor="#ffffff"
     bordercolor="#666666"
     borderopacity="1.0"
     inkscape:pageopacity="0.0"
     inkscape:pageshadow="2"
     inkscape:zoom="45.254831"
     inkscape:cx="7.2178869"
     inkscape:cy="6.8807139"
     inkscape:document-units="px"
     inkscape:current-layer="layer1"
     showgrid="true"
     inkscape:window-width="1920"
     inkscape:window-height="1137"
     inkscape:window-x="1912"
     inkscape:window-y="-8"
     inkscape:window-maximized="1"
     inkscape:snap-global="true">
    <inkscape:grid
       type="xygrid"
       id="grid2985"
       empspacing="5"
       visible="true"
       enabled="true"
       snapvisiblegridlinesonly="true" />
  </sodipodi:namedview>
  <metadata
     id="metadata7">
    <rdf:RDF>
      <cc:Work
         rdf:about="">
        <dc:format>image/svg+xml</dc:format>
        <dc:type
           rdf:resource="http://purl.org/dc/dcmitype/StillImage" />
        <dc:title></dc:title>
      </cc:Work>
    </rdf:RDF>
  </metadata>
  <g
     inkscape:label="Layer 1"
     inkscape:groupmode="layer"
     id="layer1"
     transform="translate(0,-1036.3622)">
    <path
       inkscape:connector-curvature="0"
       id="path4119"
       style="font-style:normal;font-weight:normal;font-size:11.09719372px;line-height:125%;font-family:Sans;letter-spacing:0px;word-spacing:0px;display:inline;fill:#2b6498;fill-opacity:1;stroke:none;stroke-width:1.5635016"
       d="m 1.384e-5,1043.7505 c 0.43825893,-0.015 0.79541113,-0.1124 1.07145826,-0.309 0.2760456,-0.1967 0.4596025,-0.4659 0.5506706,-0.8087 0.091063,-0.3427 0.1442181,-0.4644 0.145125,-0.5972 0.00564,-0.8296 0.022766,-1.3762 0.051224,-1.6395 0.051224,-0.4174 0.1465635,-0.7526 0.286007,-1.0061 0.139448,-0.2534 0.311613,-0.4559 0.516513,-0.6075 0.2049,-0.1517 0.4667147,-0.267 0.7854521,-0.3465 0.2162808,-0.049 0.5702488,-0.039 1.0586543,-0.074 h 0.4781002 v 1.1701 H 4.6785524 c -0.5919384,0 -0.9846629,0.095 -1.1781776,0.2796 -0.1935214,0.1863 -0.2902766,0.6025 -0.2902734,1.2484 0,0.3887 -0.031303,0.962 -0.093921,1.3048 -0.1024471,0.5317 -0.2774719,0.9417 -0.5250535,1.2298 -0.2475905,0.2881 -0.6360475,0.544 -1.1653707,0.7675 0.6260829,0.2284 1.0799918,0.5778 1.3617324,1.0469 0.2817316,0.4699 0.4226113,1.2389 0.4226057,2.3069 -1.1e-6,0.2054 0.011416,0.3835 0.034149,0.5672 0.045543,0.3378 0.1607854,0.5737 0.3457675,0.7079 0.1849754,0.1346 0.5478217,0.2011 1.0885335,0.2011 h 0.2646654 v 1.1703 H 4.4651086 c -0.5577896,0 -0.9618992,-0.041 -1.2123288,-0.1203 -0.3642692,-0.1143 -0.6659266,-0.2994 -0.9049743,-0.5554 -0.2390512,-0.256 -0.3941496,-0.5803 -0.4652908,-0.9726 -0.071155,-0.3923 -0.113792,-0.5379 -0.1152614,-0.7686 -0.00564,-0.8942 -0.05408,-1.5127 -0.1451239,-1.8558 -0.091075,-0.3426 -0.2746261,-0.6133 -0.5506712,-0.8122 C 0.79541268,1045.0791 0.43825893,1044.9748 0,1044.9649 Z"
       sodipodi:nodetypes="ccccccccsccsccccccsccsccscccccscc" />
    <g
       id="g42"
       transform="matrix(0.9232074,0,0,0.9232074,0.6143408,80.199305)">
      <circle
         r="4.0110579"
         cy="1044.3622"
         cx="8"
         id="path10796-2-6-2"
         style="font-style:normal;font-weight:normal;font-size:13.58917427px;line-height:125%;font-family:Sans;letter-spacing:0px;word-spacing:0px;display:inline;fill:url(#linearGradient7188);fill-opacity:1;stroke:url(#linearGradient3787);stroke-width:1;stroke-linecap:round;stroke-linejoin:round;stroke-miterlimit:4;stroke-dasharray:none;stroke-dashoffset:0;stroke-opacity:1" />
      <path
         inkscape:connector-curvature="0"
         id="rect3791"
         d="m 6.5,1041.8622 v 4 1 h 1 2 v -1 h -2 v -4 z"
         style="fill:#ffffff;fill-opacity:1;stroke:none" />
    </g>
    <path
       inkscape:connector-curvature="0"
       id="path4119-9"
       style="font-style:normal;font-weight:normal;font-size:11.09719372px;line-height:125%;font-family:Sans;letter-spacing:0px;word-spacing:0px;display:inline;fill:#2b6498;fill-opacity:1;stroke:none;stroke-width:1.5635016"
       d="m 15.999986,1043.7505 c -0.438259,-0.015 -0.795411,-0.1124 -1.071458,-0.309 -0.276046,-0.1967 -0.459603,-0.4659 -0.550671,-0.8087 -0.09106,-0.3427 -0.144218,-0.4644 -0.145125,-0.5972 -0.0056,-0.8296 -0.02277,-1.3762 -0.05122,-1.6395 -0.05122,-0.4174 -0.146563,-0.7526 -0.286007,-1.0061 -0.139448,-0.2534 -0.311613,-0.4559 -0.516513,-0.6075 -0.2049,-0.1517 -0.466714,-0.267 -0.785452,-0.3465 -0.216281,-0.049 -0.570249,-0.039 -1.058654,-0.074 h -0.4781 v 1.1701 h 0.264666 c 0.591938,0 0.984662,0.095 1.178177,0.2796 0.193522,0.1863 0.290277,0.6025 0.290274,1.2484 0,0.3887 0.0313,0.962 0.09392,1.3048 0.102447,0.5317 0.277472,0.9417 0.525053,1.2298 0.247591,0.2881 0.636048,0.544 1.165371,0.7675 -0.626083,0.2284 -1.079992,0.5778 -1.361733,1.0469 -0.281731,0.4699 -0.422611,1.2389 -0.422605,2.3069 10e-7,0.2054 -0.01142,0.3835 -0.03415,0.5672 -0.04554,0.3378 -0.160786,0.5737 -0.345768,0.7079 -0.184975,0.1346 -0.547822,0.2011 -1.088533,0.2011 H 11.05679 v 1.1703 h 0.478101 c 0.55779,0 0.9619,-0.041 1.212329,-0.1203 0.364269,-0.1143 0.665927,-0.2994 0.904975,-0.5554 0.239051,-0.256 0.394149,-0.5803 0.46529,-0.9726 0.07115,-0.3923 0.113792,-0.5379 0.115262,-0.7686 0.0056,-0.8942 0.05408,-1.5127 0.145124,-1.8558 0.09108,-0.3426 0.274626,-0.6133 0.550671,-0.8122 0.276045,-0.1985 0.633199,-0.3028 1.071458,-0.3127 z"
       sodipodi:nodetypes="ccccccccsccsccccccsccsccscccccscc" />
  </g>
</svg>
