<?xml version="1.0" encoding="UTF-8" standalone="no"?>
<!-- Created with Inkscape (http://www.inkscape.org/) -->

<svg
   xmlns:dc="http://purl.org/dc/elements/1.1/"
   xmlns:cc="http://creativecommons.org/ns#"
   xmlns:rdf="http://www.w3.org/1999/02/22-rdf-syntax-ns#"
   xmlns:svg="http://www.w3.org/2000/svg"
   xmlns="http://www.w3.org/2000/svg"
   xmlns:xlink="http://www.w3.org/1999/xlink"
   xmlns:sodipodi="http://sodipodi.sourceforge.net/DTD/sodipodi-0.dtd"
   xmlns:inkscape="http://www.inkscape.org/namespaces/inkscape"
   width="16"
   height="16"
   id="svg2"
   version="1.1"
   inkscape:version="0.91 r13725"
   sodipodi:docname="status_failure.svg"
   inkscape:export-filename="/usr/local/eclipse/ease-unittest/ws/org.eclipse.ease.core/plugins/org.eclipse.ease.lang.unittest.ui/icons/eobj16/status_failure.png"
   inkscape:export-xdpi="90"
   inkscape:export-ydpi="90">
  <defs
     id="defs4">
    <linearGradient
       inkscape:collect="always"
       xlink:href="#linearGradient4156"
       id="linearGradient4162"
       x1="4"
       y1="1060.3622"
       x2="4"
       y2="1054.3622"
       gradientUnits="userSpaceOnUse"
       gradientTransform="matrix(1.4984271,0,0,1.5170869,1.2235059,-570.21019)" />
    <linearGradient
       inkscape:collect="always"
       id="linearGradient4156">
      <stop
         style="stop-color:#446691;stop-opacity:1"
         offset="0"
         id="stop4158" />
      <stop
         style="stop-color:#5174a6;stop-opacity:1"
         offset="1"
         id="stop4160" />
    </linearGradient>
  </defs>
  <sodipodi:namedview
     id="base"
     pagecolor="#ffffff"
     bordercolor="#666666"
     borderopacity="1.0"
     inkscape:pageopacity="0.0"
     inkscape:pageshadow="2"
     inkscape:zoom="49.76264"
     inkscape:cx="6.1140412"
     inkscape:cy="8.1699303"
     inkscape:document-units="px"
     inkscape:current-layer="layer1"
     showgrid="true"
     inkscape:window-width="1920"
     inkscape:window-height="1015"
     inkscape:window-x="0"
     inkscape:window-y="0"
     inkscape:window-maximized="1"
     showguides="true"
     inkscape:guide-bbox="true"
     inkscape:snap-global="true"
     inkscape:snap-bbox="true"
     inkscape:bbox-nodes="true">
    <inkscape:grid
       type="xygrid"
       id="grid3999" />
  </sodipodi:namedview>
  <metadata
     id="metadata7">
    <rdf:RDF>
      <cc:Work
         rdf:about="">
        <dc:format>image/svg+xml</dc:format>
        <dc:type
           rdf:resource="http://purl.org/dc/dcmitype/StillImage" />
        <dc:title />
      </cc:Work>
    </rdf:RDF>
  </metadata>
  <g
     inkscape:label="Layer 1"
     inkscape:groupmode="layer"
     id="layer1"
     style="display:inline"
     transform="translate(0,-1036.3622)">
    <path
       style="display:inline;opacity:1;fill:url(#linearGradient4162);fill-opacity:1;stroke:#04306e;stroke-width:1.5009625;stroke-linecap:butt;stroke-linejoin:miter;stroke-miterlimit:4;stroke-dasharray:none;stroke-dashoffset:0;stroke-opacity:1"
       d="m 3.4971009,1039.1089 9.0057981,0 0,10.5067 -9.0057981,0 z"
       id="rect7768"
       inkscape:connector-curvature="0"
       sodipodi:nodetypes="ccccc" />
    <path
       id="path4187-9"
       d="m 4.6228234,1041.032 0,0.1876 0,0.7505 0,0.1876 0.1876203,0 0.562861,0 1.7823929,2.1108 -1.829298,2.2983 -0.5159559,0 -0.1876203,0 0,0.1876 0,0.7505 0,0.1876 0.1876203,0 2.2514438,0 0.1876203,0 0,-0.1876 0,-0.7505 0,-0.1876 -0.1876203,0 0.9381016,-1.2664 0.9381018,1.2664 -0.187621,0 0,0.1876 0,0.7505 0,0.1876 0.187621,0 2.2514671,0 0.18762,0 0,-0.1876 0,-0.7505 0,-0.1876 -0.18762,0 -0.469058,0 -1.8762191,-2.3453 1.7355011,-2.0638 0.609776,0 0.18762,0 0,-0.1876 0,-0.7505 0,-0.1876 -0.18762,0 -2.2514671,0 -0.187621,0 0,0.1876 0,0.7505 0,0.1876 0.09381,0 -0.8442919,1.0789 -0.8442915,-1.0789 0.09381,0 0,-0.1876 0,-0.7505 0,-0.1876 -0.1876203,0 -2.2514438,0 -0.1876203,0 z"
       style="color:#000000;font-style:normal;font-variant:normal;font-weight:normal;font-stretch:normal;font-size:7.68999243px;line-height:125%;font-family:Sans;text-indent:0;text-align:start;text-decoration:none;text-decoration-line:none;letter-spacing:0px;word-spacing:0px;text-transform:none;direction:ltr;block-progression:tb;writing-mode:lr-tb;baseline-shift:baseline;text-anchor:start;display:inline;overflow:visible;visibility:visible;fill:#ffffff;fill-opacity:1;fill-rule:nonzero;stroke:none;stroke-width:0.27519909;marker:none;enable-background:accumulate"
       inkscape:connector-curvature="0" />
  </g>
</svg>
